<?xml version="1.0" encoding="UTF-8" standalone="no"?>
<svg
   xmlns:dc="http://purl.org/dc/elements/1.1/"
   xmlns:cc="http://creativecommons.org/ns#"
   xmlns:rdf="http://www.w3.org/1999/02/22-rdf-syntax-ns#"
   xmlns:svg="http://www.w3.org/2000/svg"
   xmlns="http://www.w3.org/2000/svg"
   xmlns:sodipodi="http://sodipodi.sourceforge.net/DTD/sodipodi-0.dtd"
   xmlns:inkscape="http://www.inkscape.org/namespaces/inkscape"
   version="1.1"
   id="svg10"
   xml:space="preserve"
   width="2313.875"
   height="476.46951"
   viewBox="0 0 2313.875 476.46951"
   sodipodi:docname="logo.svg"
   inkscape:version="1.0.1 (3bc2e813f5, 2020-09-07)"><metadata
     id="metadata16"><rdf:RDF><cc:Work
         rdf:about=""><dc:format>image/svg+xml</dc:format><dc:type
           rdf:resource="http://purl.org/dc/dcmitype/StillImage" /><dc:title></dc:title></cc:Work></rdf:RDF></metadata><defs
     id="defs14"><clipPath
       clipPathUnits="userSpaceOnUse"
       id="clipPath26"><path
         d="M 0,1080 H 1920 V 0 H 0 Z"
         id="path24" /></clipPath></defs><sodipodi:namedview
     pagecolor="#ffffff"
     bordercolor="#666666"
     borderopacity="1"
     objecttolerance="10"
     gridtolerance="10"
     guidetolerance="10"
     inkscape:pageopacity="0"
     inkscape:pageshadow="2"
     inkscape:window-width="3840"
     inkscape:window-height="2066"
     id="namedview12"
     showgrid="false"
     inkscape:zoom="0.55664062"
     inkscape:cx="774.41649"
     inkscape:cy="199.6925"
     inkscape:window-x="-11"
     inkscape:window-y="-11"
     inkscape:window-maximized="1"
     inkscape:current-layer="g18"
     inkscape:document-rotation="0" /><g
     id="g18"
     inkscape:groupmode="layer"
     inkscape:label="Deccra RGB"
     transform="matrix(1.3333333,0,0,-1.3333333,-123.0625,958.23436)"><g
       id="g20"
       transform="matrix(2.0655,0,0,2.0655,-1022.88,-575.36967)"><g
         id="g22"
         clip-path="url(#clipPath26)"><g
           id="g28"
           transform="translate(844.6729,567.7686)"><path
             d="m 0,0 6.045,34.286 h -114.273 l -18.67,-105.889 c -4.156,-23.566 11.581,-42.67 35.146,-42.67 h 71.603 l 6.045,34.286 h -57.173 c -6.292,0 -10.493,5.099 -9.384,11.39 l 2.021,11.46 h 45.447 l 6.046,34.286 H -72.594 L -68.565,0 Z"
             style="fill:#ea8823;fill-opacity:1;fill-rule:nonzero;stroke:none"
             id="path30" /></g><g
           id="g32"
           transform="translate(908.4517,567.7686)"><path
             d="m 0,0 h 68.565 l 6.046,34.286 H -39.663 L -57.414,-66.386 c -4.663,-26.448 12.998,-47.887 39.445,-47.887 h 66.385 l 6.045,34.286 H 4.581 c -10.319,0 -17.21,8.364 -15.391,18.683 z"
             style="fill:#ea8823;fill-opacity:1;fill-rule:nonzero;stroke:none"
             id="path34" /></g><g
           id="g36"
           transform="translate(1037.9668,567.7686)"><path
             d="m 0,0 h 68.566 l 6.045,34.286 H -39.662 L -57.413,-66.386 c -4.664,-26.448 12.997,-47.887 39.445,-47.887 h 66.384 l 6.046,34.286 H 4.582 c -10.32,0 -17.211,8.364 -15.391,18.683 z"
             style="fill:#ea8823;fill-opacity:1;fill-rule:nonzero;stroke:none"
             id="path38" /></g><g
           id="g40"
           transform="translate(1194.8477,561.2549)"><path
             d="m 0,0 c -1.591,-9.023 -10.195,-16.337 -19.218,-16.337 h -6.52 l 4.029,22.851 H 1.148 Z m 46.438,4.137 6.464,36.662 H -61.371 L -87.566,-107.76 h 45.708 l 10.075,57.137 h 6.519 c 9.023,0 15.048,-7.315 13.457,-16.338 l -7.194,-40.799 h 45.708 l 6.118,34.699 c 2.099,11.902 -2.444,22.859 -11.858,28.599 l -17.417,10.62 19.273,8.59 c 12.235,5.451 21.406,16.869 23.615,29.389"
             style="fill:#ea8823;fill-opacity:1;fill-rule:nonzero;stroke:none"
             id="path42" /></g><g
           id="g44"
           transform="translate(1324.3105,544.9175)"><path
             d="m 0,0 h -22.857 l 2.074,11.766 c 1.08,6.122 6.919,11.085 13.04,11.085 H 4.029 Z m -23.977,57.137 c -19.06,0 -37.238,-15.453 -40.599,-34.514 l -20.11,-114.045 h 45.708 l 10.076,57.136 H -6.045 L -16.12,-91.422 H 29.588 L 55.783,57.137 Z"
             style="fill:#ea8823;fill-opacity:1;fill-rule:nonzero;stroke:none"
             id="path46" /></g><g
           id="g48"
           transform="translate(663.3965,566.4927)"><path
             d="m 0,0 -11.277,-63.954 c -0.156,-0.883 -0.399,-1.744 -0.696,-2.585 -2.444,-6.916 -9.397,-12.172 -16.664,-12.172 h -11.447 c -28.652,0 -30.021,-7.767 -30.021,-7.767 l 1.369,7.767 3.443,19.527 6.561,37.209 5.761,32.671 c 1.464,8.301 9.379,15.031 17.68,15.031 h 12.257 27.57 6.496 C 11.032,25.727 2.822,15.999 0,0 m 13.582,60.012 h -76.307 c -16.711,0 -32.647,-13.547 -35.594,-30.259 l -2.897,-16.428 -14.041,-79.635 -8.233,-46.688 h 106.566 11.195 c 19.061,0 37.237,15.453 40.598,34.513 L 59.29,60.012 Z"
             style="fill:#ea8823;fill-opacity:1;fill-rule:nonzero;stroke:none"
             id="path50" /></g></g></g><path
       style="fill:#ea9e23;fill-opacity:1;stroke-width:1.79649"
       d="m 1.9252514,473.54485 c 0,-1.62879 15.7645146,-92.40873 35.0322546,-201.73322 C 71.793925,74.151029 72.029287,72.959526 79.06044,58.667937 91.042337,34.313415 114.2409,13.999397 140.1255,5.1958089 L 151.93227,1.1802168 327.20927,0.68049937 502.48626,0.18078212 468.70315,192.00682 c -18.58073,105.50432 -35.46575,197.06835 -37.5223,203.47563 -10.75585,33.51049 -40.70589,63.06705 -76.01059,75.01194 l -14.60641,4.94189 -169.3193,0.535 C 14.943024,476.46513 1.9252514,476.27858 1.9252514,473.54485 Z M 151.143,399.86997 c 3.77473,-4.54827 15.53536,-9.81308 28.37623,-12.70299 7.34306,-1.65261 27.83508,-3.18682 53.25515,-3.98713 44.69305,-1.40709 47.84169,-2.09888 61.37266,-13.48445 12.23727,-10.29698 13.45166,-14.83041 31.82438,-118.8029 9.55606,-54.07841 19.04863,-102.5758 21.44966,-109.58597 4.487,-13.10041 12.78079,-30.27455 19.08651,-39.5228 2.02107,-2.964214 3.68002,-6.03099 3.68653,-6.815063 0.007,-0.784072 -31.71869,-1.188282 -70.50044,-0.898246 -69.24506,0.517864 -70.64864,0.600203 -78.09966,4.581617 -10.1651,5.431672 -19.98013,15.519912 -24.04914,24.718582 -1.94206,4.39036 -13.08992,62.94984 -26.70617,140.2869 -12.85492,73.01293 -23.70675,134.16551 -24.11518,135.89463 -0.9232,3.90843 1.30646,4.06877 4.41947,0.31782 z"
       id="path52"
       transform="matrix(0.75000002,0,0,-0.75000002,92.296877,718.67579)" /><path
       style="fill:#ea9e23;fill-opacity:1;stroke-width:1.79649"
       d="m 571.17939,474.42813 c -5.56286,-0.81725 -14.73715,-3.1107 -20.38731,-5.09658 -39.6114,-13.92228 -65.24937,-54.90009 -61.32989,-98.02507 0.63107,-6.94348 12.66991,-77.7024 26.75297,-157.24205 L 541.82074,69.446884 698.66386,68.98787 c 148.83917,-0.435589 156.79574,-0.298072 155.91447,2.694737 -0.9362,3.179367 -15.48816,85.227313 -15.48816,87.326513 0,0.62084 -42.61426,1.33806 -94.69835,1.59381 l -94.69836,0.46501 -5.52327,31.43859 -5.52327,31.4386 62.63297,0.47226 62.63296,0.47226 -1.05244,4.91721 c -1.51783,7.0917 -15.35967,85.50275 -15.37685,87.10669 -0.007,0.74106 -28.22519,1.34737 -62.705,1.34737 h -62.69055 l -2.88503,15.7193 c -3.96293,21.59232 -3.71295,29.20788 1.20019,36.56241 8.3696,12.52851 7.24392,12.38607 97.90719,12.38919 l 81.32545,0.004 -0.90879,4.04211 c -1.29824,5.77347 -15.32808,86.30058 -15.32808,87.97781 0,1.86524 -199.3047,1.37012 -212.21955,-0.5272 z"
       id="path877"
       transform="matrix(0.75000002,0,0,-0.75000002,92.296877,718.67579)" /><path
       style="fill:#ea9e23;fill-opacity:1;stroke-width:1.79649"
       d="m 949.5201,474.47996 c -14.62766,-1.91276 -31.94819,-7.93153 -44.21362,-15.36392 -21.5225,-13.04188 -40.4368,-39.56666 -46.63721,-65.40249 -5.38917,-22.45551 -4.03648,-33.42761 22.64617,-183.69123 L 906.43725,68.548638 h 156.54585 156.5458 l -2.2645,12.126316 c -1.2455,6.669474 -4.9161,27.277126 -8.1569,45.794786 l -5.8925,33.66847 -94.4835,0.46487 -94.4834,0.46486 -14.8108,82.63859 c -8.14592,45.45123 -14.93499,87.89334 -15.08683,94.3158 -0.18009,7.61759 0.82507,14.34176 2.89126,19.34165 4.11917,9.96774 16.71677,20.99579 26.91847,23.56461 5.2001,1.30941 32.7112,2.00602 79.223,2.00602 56.2512,0 71.081,0.47287 70.424,2.24561 -0.4577,1.23509 -4.3239,22.25404 -8.5916,46.70877 l -7.7594,44.46316 -93.5514,-0.22779 c -51.4533,-0.12522 -98.42642,-0.86528 -104.3847,-1.6444 z"
       id="path879"
       transform="matrix(0.75000002,0,0,-0.75000002,92.296877,718.67579)" /><path
       style="fill:#ea9e23;fill-opacity:1;stroke-width:1.79649"
       d="m 1306.4676,474.41927 c -24.4239,-3.16844 -45.984,-13.36491 -62.389,-29.50572 -21.8734,-21.52115 -32.5021,-49.98025 -30.8307,-82.55139 0.5907,-11.51098 9.4619,-66.22271 24.4825,-150.99247 12.9559,-73.11719 24.0199,-135.163508 24.5867,-137.880701 l 1.0305,-4.940351 h 156.152 c 85.8836,0 156.152,0.51511 156.152,1.144689 0,2.105242 -14.5464,84.144213 -15.485,87.332503 -0.8662,2.94234 -6.9545,3.14386 -94.9775,3.14386 h -94.052 l -1.0015,4.94035 c -0.5508,2.7172 -7.5603,42.12772 -15.5767,87.57895 -11.0389,62.58767 -14.3429,84.98767 -13.6173,92.32016 1.2813,12.94738 8.636,24.60349 19.9326,31.59024 l 8.7909,5.43697 75.1476,0.52332 c 48.1015,0.33497 75.1477,1.16416 75.1477,2.30391 0,1.97943 -13.845,81.05847 -15.31,87.44646 l -0.9269,4.0421 -92.9342,-0.22779 c -51.1138,-0.12522 -98.0586,-0.89259 -104.3217,-1.70509 z"
       id="path881"
       transform="matrix(0.75000002,0,0,-0.75000002,92.296877,718.67579)" /><path
       style="fill:#ea9e23;fill-opacity:1;stroke-width:1.79649"
       d="m 1563.7548,473.23172 c 0.9942,-3.36568 71.181,-401.079796 71.181,-403.347996 0,-0.734297 70.3326,-1.335086 156.2947,-1.335086 125.7129,0 156.2948,0.449504 156.2948,2.297282 0,7.30003 -18.4296,104.56406 -21.4929,113.43138 -6.7327,19.48852 -21.1695,38.43025 -39.7982,52.21681 -5.55,4.10747 -24.3197,13.79536 -41.7103,21.52866 -17.3906,7.73331 -31.2142,14.71591 -30.7191,15.51693 0.495,0.801 11.9888,8.12245 25.5418,16.2699 29.4199,17.68592 39.9007,26.98023 47.0641,41.73637 10.8039,22.25544 10.6125,28.64619 -3.1813,106.18162 l -6.7117,37.72632 -62.3575,0.47235 c -49.5912,0.37564 -62.2034,0.007 -61.6046,-1.79649 0.4141,-1.24787 5.3025,-28.42946 10.8632,-60.40356 9.3485,-53.7545 9.9453,-58.83041 7.9208,-67.36842 -1.5934,-6.71995 -4.1985,-11.25597 -9.5692,-16.66199 -8.6097,-8.66629 -16.7366,-11.4107 -33.832,-11.42485 -11.0568,-0.009 -12.1757,0.33603 -13.0688,4.03208 -0.5372,2.22315 -6.8708,37.59158 -14.0746,78.59649 l -13.098,74.55439 -62.4389,0.47254 c -58.922,0.44593 -62.3862,0.29414 -61.5033,-2.69473 z m 211.486,-254.15942 c 16.6276,-9.7444 26.6076,-24.14742 30.2009,-43.58549 1.0765,-5.82314 1.9573,-11.65169 1.9573,-12.95232 0,-1.86702 -6.7457,-2.3648 -32.0468,-2.3648 h -32.0468 l -4.935,28.29474 c -2.7143,15.5621 -5.3824,30.21222 -5.9293,32.55582 l -0.9942,4.26108 17.8209,-0.71579 c 15.2925,-0.61423 18.9775,-1.39359 25.973,-5.49324 z"
       id="path883"
       transform="matrix(0.75000002,0,0,-0.75000002,92.296877,718.67579)" /><path
       style="fill:#ea9e23;fill-opacity:1;stroke-width:1.79649"
       d="m 1928.61,472.31005 c 0.503,-2.22316 13.0549,-73.16211 27.8931,-157.64211 14.8383,-84.48 28.5635,-158.85474 30.5007,-165.2772 9.8252,-32.57542 38.0086,-61.5148 73.2665,-75.231986 l 12.1111,-4.71187 119.9158,-0.50968 c 96.6996,-0.411003 119.9059,-0.06319 119.8648,1.796492 -0.028,1.268394 -16.0524,92.849334 -35.6096,203.513194 l -35.5586,201.20702 -62.4276,0.47254 c -58.9106,0.44593 -62.3752,0.29411 -61.4942,-2.69473 0.5134,-1.74201 6.6406,-35.90834 13.6159,-75.92518 6.9754,-40.01685 13.0095,-74.1906 13.4092,-75.94168 0.6781,-2.97059 -1.4529,-3.15102 -31.8236,-2.69473 l -32.5502,0.48904 -13.8996,78.14737 c -7.6447,42.98105 -13.9451,78.34947 -14.0007,78.59649 -0.056,0.24702 -28.0072,0.44912 -62.1144,0.44912 h -62.0132 z m 232.6989,-247.9158 c 7e-4,-0.24701 2.4254,-14.19228 5.3883,-30.98947 2.9629,-16.79719 5.3876,-31.24631 5.3883,-32.10914 6e-4,-0.86284 -9.5524,-1.22818 -21.2291,-0.81186 -19.1949,0.68437 -22.0404,1.23179 -29.6823,5.7102 -12.2615,7.18572 -16.7746,15.19415 -20.9698,37.21062 -1.9636,10.30531 -3.5703,19.34484 -3.5703,20.08785 0,0.74301 14.5516,1.35093 32.3369,1.35093 17.7852,0 32.3374,-0.20211 32.338,-0.44913 z"
       id="path885"
       transform="matrix(0.75000002,0,0,-0.75000002,92.296877,718.67579)" /></g></svg>
